<svg preserveAspectRatio="none" overflow="visible" style="display: block;" width="14" height="14" viewBox="0 0 14 14" fill="none" xmlns="http://www.w3.org/2000/svg">
<g id="Fold" clip-path="url(#clip0_0_4600)">
<path id="Vector" fill-rule="evenodd" clip-rule="evenodd" d="M1.1102 0.8883C0.583742 0.978425 0.175583 1.35397 0.03465 1.87781L0.00105 2.00258L-0.00379167 6.82558C-0.007175 10.1653 -0.003675 11.6979 0.007525 11.8088C0.0369833 12.1005 0.120983 12.3198 0.288458 12.5424C0.509892 12.8366 0.794967 13.0126 1.17968 13.0926C1.29628 13.1168 1.65422 13.1189 6.38575 13.1235C9.66461 13.1266 11.5072 13.1231 11.581 13.1134C12.0336 13.0543 12.4503 12.7331 12.6187 12.3135C12.6708 12.1834 13.9712 6.87056 13.9921 6.70162C14.0078 6.57574 13.9934 6.36481 13.9603 6.23408C13.892 5.96487 13.7025 5.68143 13.4814 5.51763C13.2004 5.30944 12.9487 5.24253 12.4419 5.24119L12.2494 5.24067L12.244 4.46337L12.2387 3.68608L12.1906 3.542C12.0443 3.10438 11.6961 2.77877 11.2467 2.65947L11.1177 2.62529L8.18895 2.62062L5.26009 2.61602L5.25169 2.30172C5.24498 2.05082 5.23682 1.96292 5.21138 1.86608C5.09157 1.40992 4.75866 1.06902 4.28966 0.922192L4.15625 0.880425L2.66992 0.878092C1.85243 0.876808 1.15057 0.881358 1.1102 0.8883ZM1.16503 1.77742C1.07357 1.80979 0.959525 1.91812 0.916417 2.01349L0.88025 2.09358V6.94692V11.8002L0.914083 11.8837C0.963667 12.0059 1.06639 12.1152 1.18767 12.175C1.27966 12.2202 1.30182 12.2249 1.42596 12.2249C1.54239 12.2249 1.57553 12.2189 1.64885 12.1845C1.75922 12.1328 1.8662 12.0339 1.91409 11.9394C1.93947 11.8894 2.18015 10.9273 2.64693 9.01017C3.11465 7.08902 3.35767 6.11771 3.38998 6.04018C3.50694 5.75907 3.752 5.50812 4.04384 5.37046C4.18822 5.30238 4.30144 5.27327 4.48992 5.25577C4.57765 5.24761 6.05897 5.24148 8.00479 5.24119L11.368 5.24067L11.3678 4.53921L11.3677 3.83775L11.331 3.76192C11.3107 3.72021 11.2818 3.67179 11.2666 3.65435C11.2246 3.60582 11.1343 3.54287 11.0776 3.52257C11.0389 3.50869 10.2675 3.50251 7.84933 3.49662L4.67192 3.48892L4.60367 3.44855C4.51844 3.39815 4.46483 3.34157 4.41922 3.25383C4.38439 3.18681 4.38363 3.17555 4.37617 2.632C4.36876 2.08892 4.36794 2.07713 4.33317 2.01017C4.2798 1.90727 4.18419 1.81714 4.09173 1.78249C4.01322 1.75315 3.9732 1.75239 2.62004 1.75356C1.42602 1.75455 1.22004 1.75793 1.16503 1.77742ZM4.52661 6.13556C4.37558 6.16134 4.23424 6.27923 4.18903 6.41731C4.17556 6.45832 3.86738 7.71359 3.50414 9.20675C2.93341 11.5529 2.80373 12.0767 2.75818 12.2211C2.75018 12.2464 2.96427 12.2477 7.10821 12.2475C10.0278 12.2475 11.485 12.2424 11.5223 12.232C11.6107 12.2075 11.7196 12.1252 11.7682 12.0462C11.8061 11.9846 11.9117 11.5705 12.4642 9.31618C12.9658 7.26944 13.1157 6.63612 13.1166 6.56017C13.1186 6.3889 13.0301 6.24779 12.8722 6.17021L12.7861 6.12792L8.69108 6.12582C6.43883 6.12465 4.56482 6.12902 4.52661 6.13556Z" fill="#08A4A5"/>
</g>
<defs>
<clipPath id="clip0_0_4600">
<rect width="14" height="14" fill="white"/>
</clipPath>
</defs>
</svg>
